# xmcd CD database file
#
# Track frame offsets:
#	150
#	17680
#	36360
#
# Disc length: 735 seconds
#
# Revision: 0
# Processed by: cddbd v1.5PL3 Copyright (c) Steve Scherf et al.
# Submitted via: CDex 1.51
#
DISCID=1c02dd03
DTITLE=Steel and Glass - 偉大なるチカラ 〜Primitive〜
DYEAR=1998
DGENRE=Rock
TTITLE0=偉大なるチカラ
TTITLE1=Listen to the pure mind
TTITLE2=Careless World
EXTD=YEAR: 1998
EXTT0=
EXTT1=
EXTT2=
PLAYORDER=
